name rise30.3154peak39.0474fall46.5389.mot
datacolumns 19
datarows 36
range 2.91332800000000 2.97166300000000
endheader
time	ground_force1_vx	ground_force1_vy	ground_force1_vz	ground_force1_px	ground_force1_py	ground_force1_pz	ground_force2_vx	ground_force2_vy	ground_force2_vz	ground_force2_px	ground_force2_py	ground_force2_pz	ground_torque1_x	ground_torque1_y	ground_torque1_z	ground_torque2_x	ground_torque2_y	ground_torque2_z	
2.91332800000000	6.90826100000000	691.76498000000004	39.28611800000000	0.20436600000000	0.00000000000000	0.09048200000000	0.00000000000000	0.00000000000000	0.00000000000000	0.00000000000000	0.00000000000000	0.00000000000000	0.00000000000000	13.22097600000000	0.00000000000000	0.00000000000000	0.00000000000000	0.00000000000000	
2.91499000000000	6.42825000000000	691.96807000000001	39.30514100000000	0.20365100000000	0.00000000000000	0.09047500000000	0.00000000000000	0.00000000000000	0.00000000000000	0.00000000000000	0.00000000000000	0.00000000000000	0.00000000000000	13.26729200000000	0.00000000000000	0.00000000000000	0.00000000000000	0.00000000000000	
2.91665800000000	5.93982000000000	692.25071600000001	39.33037300000000	0.20292400000000	0.00000000000000	0.09046900000000	0.00000000000000	0.00000000000000	0.00000000000000	0.00000000000000	0.00000000000000	0.00000000000000	0.00000000000000	13.31813600000000	0.00000000000000	0.00000000000000	0.00000000000000	0.00000000000000	
2.91832200000000	5.44260400000000	692.61317299999996	39.36156800000000	0.20218200000000	0.00000000000000	0.09046400000000	0.00000000000000	0.00000000000000	0.00000000000000	0.00000000000000	0.00000000000000	0.00000000000000	0.00000000000000	13.37333600000000	0.00000000000000	0.00000000000000	0.00000000000000	0.00000000000000	
2.91999400000000	4.93626800000000	693.05558599999995	39.39848200000000	0.20142200000000	0.00000000000000	0.09046100000000	0.00000000000000	0.00000000000000	0.00000000000000	0.00000000000000	0.00000000000000	0.00000000000000	0.00000000000000	13.43271900000000	0.00000000000000	0.00000000000000	0.00000000000000	0.00000000000000	
2.92166000000000	4.42051000000000	693.57799399999999	39.44087200000000	0.20064400000000	0.00000000000000	0.09045900000000	0.00000000000000	0.00000000000000	0.00000000000000	0.00000000000000	0.00000000000000	0.00000000000000	0.00000000000000	13.49611400000000	0.00000000000000	0.00000000000000	0.00000000000000	0.00000000000000	
2.92332300000000	3.89506300000000	694.18033000000003	39.48850000000000	0.19984600000000	0.00000000000000	0.09045900000000	0.00000000000000	0.00000000000000	0.00000000000000	0.00000000000000	0.00000000000000	0.00000000000000	0.00000000000000	13.56335100000000	0.00000000000000	0.00000000000000	0.00000000000000	0.00000000000000	
2.92498700000000	3.35969700000000	694.86242600000003	39.54113100000000	0.19902700000000	0.00000000000000	0.09046000000000	0.00000000000000	0.00000000000000	0.00000000000000	0.00000000000000	0.00000000000000	0.00000000000000	0.00000000000000	13.63426600000000	0.00000000000000	0.00000000000000	0.00000000000000	0.00000000000000	
2.92665900000000	2.81422000000000	695.62400800000000	39.59853400000000	0.19818600000000	0.00000000000000	0.09046300000000	0.00000000000000	0.00000000000000	0.00000000000000	0.00000000000000	0.00000000000000	0.00000000000000	0.00000000000000	13.70869400000000	0.00000000000000	0.00000000000000	0.00000000000000	0.00000000000000	
2.92832300000000	2.25847800000000	696.46470499999998	39.66048400000000	0.19732200000000	0.00000000000000	0.09046700000000	0.00000000000000	0.00000000000000	0.00000000000000	0.00000000000000	0.00000000000000	0.00000000000000	0.00000000000000	13.78647600000000	0.00000000000000	0.00000000000000	0.00000000000000	0.00000000000000	
2.92998900000000	1.69235900000000	697.38405000000000	39.72676200000000	0.19643400000000	0.00000000000000	0.09047300000000	0.00000000000000	0.00000000000000	0.00000000000000	0.00000000000000	0.00000000000000	0.00000000000000	0.00000000000000	13.86745400000000	0.00000000000000	0.00000000000000	0.00000000000000	0.00000000000000	
2.93166100000000	1.11579100000000	698.38147500000002	39.79715200000000	0.19552200000000	0.00000000000000	0.09048100000000	0.00000000000000	0.00000000000000	0.00000000000000	0.00000000000000	0.00000000000000	0.00000000000000	0.00000000000000	13.95147700000000	0.00000000000000	0.00000000000000	0.00000000000000	0.00000000000000	
2.93332500000000	0.52874400000000	699.45632200000000	39.87144800000000	0.19458600000000	0.00000000000000	0.09049000000000	0.00000000000000	0.00000000000000	0.00000000000000	0.00000000000000	0.00000000000000	0.00000000000000	0.00000000000000	14.03839600000000	0.00000000000000	0.00000000000000	0.00000000000000	0.00000000000000	
2.93498800000000	-0.06877100000000	700.60784000000001	39.94944800000000	0.19362600000000	0.00000000000000	0.09050100000000	0.00000000000000	0.00000000000000	0.00000000000000	0.00000000000000	0.00000000000000	0.00000000000000	0.00000000000000	14.12806500000000	0.00000000000000	0.00000000000000	0.00000000000000	0.00000000000000	
2.93666200000000	-0.67669800000000	701.83518700000002	40.03096000000000	0.19264300000000	0.00000000000000	0.09051300000000	0.00000000000000	0.00000000000000	0.00000000000000	0.00000000000000	0.00000000000000	0.00000000000000	0.00000000000000	14.22034500000000	0.00000000000000	0.00000000000000	0.00000000000000	0.00000000000000	
2.93832600000000	-1.29494300000000	703.13743299999999	40.11579700000000	0.19163600000000	0.00000000000000	0.09052700000000	0.00000000000000	0.00000000000000	0.00000000000000	0.00000000000000	0.00000000000000	0.00000000000000	0.00000000000000	14.31509900000000	0.00000000000000	0.00000000000000	0.00000000000000	0.00000000000000	
2.93999500000000	-1.92336700000000	704.51355899999999	40.20378300000000	0.19060700000000	0.00000000000000	0.09054200000000	0.00000000000000	0.00000000000000	0.00000000000000	0.00000000000000	0.00000000000000	0.00000000000000	0.00000000000000	14.41219400000000	0.00000000000000	0.00000000000000	0.00000000000000	0.00000000000000	
2.94165900000000	-2.56178900000000	705.96246399999995	40.29474800000000	0.18955700000000	0.00000000000000	0.09055900000000	0.00000000000000	0.00000000000000	0.00000000000000	0.00000000000000	0.00000000000000	0.00000000000000	0.00000000000000	14.51150300000000	0.00000000000000	0.00000000000000	0.00000000000000	0.00000000000000	
2.94332400000000	-3.20999000000000	707.48295900000005	40.38853200000000	0.18848600000000	0.00000000000000	0.09057600000000	0.00000000000000	0.00000000000000	0.00000000000000	0.00000000000000	0.00000000000000	0.00000000000000	0.00000000000000	14.61289900000000	0.00000000000000	0.00000000000000	0.00000000000000	0.00000000000000	
2.94498800000000	-3.86770800000000	709.07377399999996	40.48498400000000	0.18739600000000	0.00000000000000	0.09059500000000	0.00000000000000	0.00000000000000	0.00000000000000	0.00000000000000	0.00000000000000	0.00000000000000	0.00000000000000	14.71626300000000	0.00000000000000	0.00000000000000	0.00000000000000	0.00000000000000	
2.94665500000000	-4.53464200000000	710.73355900000001	40.58396300000000	0.18628900000000	0.00000000000000	0.09061500000000	0.00000000000000	0.00000000000000	0.00000000000000	0.00000000000000	0.00000000000000	0.00000000000000	0.00000000000000	14.82147600000000	0.00000000000000	0.00000000000000	0.00000000000000	0.00000000000000	
2.94832700000000	-5.21045500000000	712.46087799999998	40.68533500000000	0.18516500000000	0.00000000000000	0.09063500000000	0.00000000000000	0.00000000000000	0.00000000000000	0.00000000000000	0.00000000000000	0.00000000000000	0.00000000000000	14.92842300000000	0.00000000000000	0.00000000000000	0.00000000000000	0.00000000000000	
2.94999300000000	-5.89476900000000	714.25422100000003	40.78897900000000	0.18402700000000	0.00000000000000	0.09065700000000	0.00000000000000	0.00000000000000	0.00000000000000	0.00000000000000	0.00000000000000	0.00000000000000	0.00000000000000	15.03699100000000	0.00000000000000	0.00000000000000	0.00000000000000	0.00000000000000	
2.95166300000000	-6.58717500000000	716.11199499999998	40.89478300000000	0.18287700000000	0.00000000000000	0.09067800000000	0.00000000000000	0.00000000000000	0.00000000000000	0.00000000000000	0.00000000000000	0.00000000000000	0.00000000000000	15.14707100000000	0.00000000000000	0.00000000000000	0.00000000000000	0.00000000000000	
2.95332400000000	-7.28722500000000	718.03252899999995	41.00264600000000	0.18171500000000	0.00000000000000	0.09070100000000	0.00000000000000	0.00000000000000	0.00000000000000	0.00000000000000	0.00000000000000	0.00000000000000	0.00000000000000	15.25855300000000	0.00000000000000	0.00000000000000	0.00000000000000	0.00000000000000	
2.95499000000000	-7.99444200000000	720.01407200000006	41.11247600000000	0.18054500000000	0.00000000000000	0.09072300000000	0.00000000000000	0.00000000000000	0.00000000000000	0.00000000000000	0.00000000000000	0.00000000000000	0.00000000000000	15.37133000000000	0.00000000000000	0.00000000000000	0.00000000000000	0.00000000000000	
2.95666000000000	-8.70831700000000	722.05479800000001	41.22419400000000	0.17936700000000	0.00000000000000	0.09074600000000	0.00000000000000	0.00000000000000	0.00000000000000	0.00000000000000	0.00000000000000	0.00000000000000	0.00000000000000	15.48529700000000	0.00000000000000	0.00000000000000	0.00000000000000	0.00000000000000	
2.95832200000000	-9.42831000000000	724.15280099999995	41.33772900000000	0.17818500000000	0.00000000000000	0.09076900000000	0.00000000000000	0.00000000000000	0.00000000000000	0.00000000000000	0.00000000000000	0.00000000000000	0.00000000000000	15.60034600000000	0.00000000000000	0.00000000000000	0.00000000000000	0.00000000000000	
2.95998800000000	-10.15385600000000	726.30609500000003	41.45302400000000	0.17699900000000	0.00000000000000	0.09079200000000	0.00000000000000	0.00000000000000	0.00000000000000	0.00000000000000	0.00000000000000	0.00000000000000	0.00000000000000	15.71637300000000	0.00000000000000	0.00000000000000	0.00000000000000	0.00000000000000	
2.96166100000000	-10.88436400000000	728.51261999999997	41.57003000000000	0.17581300000000	0.00000000000000	0.09081500000000	0.00000000000000	0.00000000000000	0.00000000000000	0.00000000000000	0.00000000000000	0.00000000000000	0.00000000000000	15.83327100000000	0.00000000000000	0.00000000000000	0.00000000000000	0.00000000000000	
2.96332500000000	-11.61921900000000	730.77023299999996	41.68871200000000	0.17462800000000	0.00000000000000	0.09083800000000	0.00000000000000	0.00000000000000	0.00000000000000	0.00000000000000	0.00000000000000	0.00000000000000	0.00000000000000	15.95093300000000	0.00000000000000	0.00000000000000	0.00000000000000	0.00000000000000	
2.96499400000000	-12.35778500000000	733.07671500000004	41.80904200000000	0.17344600000000	0.00000000000000	0.09086000000000	0.00000000000000	0.00000000000000	0.00000000000000	0.00000000000000	0.00000000000000	0.00000000000000	0.00000000000000	16.06924900000000	0.00000000000000	0.00000000000000	0.00000000000000	0.00000000000000	
2.96665800000000	-13.09940700000000	735.42976599999997	41.93100600000000	0.17226800000000	0.00000000000000	0.09088100000000	0.00000000000000	0.00000000000000	0.00000000000000	0.00000000000000	0.00000000000000	0.00000000000000	0.00000000000000	16.18811100000000	0.00000000000000	0.00000000000000	0.00000000000000	0.00000000000000	
2.96832300000000	-13.84341200000000	737.82700799999998	42.05459900000000	0.17109800000000	0.00000000000000	0.09090200000000	0.00000000000000	0.00000000000000	0.00000000000000	0.00000000000000	0.00000000000000	0.00000000000000	0.00000000000000	16.30740500000000	0.00000000000000	0.00000000000000	0.00000000000000	0.00000000000000	
2.96998700000000	-14.58911100000000	740.26598200000001	42.17982600000000	0.16993600000000	0.00000000000000	0.09092200000000	0.00000000000000	0.00000000000000	0.00000000000000	0.00000000000000	0.00000000000000	0.00000000000000	0.00000000000000	16.42701800000000	0.00000000000000	0.00000000000000	0.00000000000000	0.00000000000000	
2.97166300000000	-15.33580500000000	742.74414999999999	42.30670300000000	0.16878400000000	0.00000000000000	0.09094100000000	0.00000000000000	0.00000000000000	0.00000000000000	0.00000000000000	0.00000000000000	0.00000000000000	0.00000000000000	16.54683100000000	0.00000000000000	0.00000000000000	0.00000000000000	0.00000000000000	
